<svg xmlns="http://www.w3.org/2000/svg" width="3500" height="1440" viewBox="0 0 926.04 381"><path fill="#fff" d="M.00000149 0h926.04v381h-926.04z"/><path fill="#e32a1b" d="M399.24 93.825s-13.224 65.552-24.867 96.747c-11.394 30.531-43.648 87.478-43.648 87.478 63.836-44.164 94.689 57.107 127.24-22.491-25.917 22.994-70.923-19.206-70.923-19.206s11.586-23.836 16.382-36.174c4.8454-12.464 12.48-38.128 12.48-38.128s18.56 23.535 26.358 36.291c7.9775 13.049 20.75 40.924 20.75 40.924s12.771-27.875 20.749-40.924c7.7982-12.756 26.358-36.291 26.358-36.291s7.6345 25.664 12.48 38.128c4.7964 12.338 16.382 36.174 16.382 36.174s-45.006 42.201-70.923 19.206c32.556 79.598 63.409-21.673 127.24 22.491 0 0-32.254-56.948-43.648-87.478-11.642-31.196-24.867-96.747-24.867-96.747s-6.8478 5.7693-9.7014 9.1894c-21.108 25.298-54.076 82.87-54.076 82.87s-32.967-57.573-54.075-82.87c-2.8536-3.4201-9.7014-9.1894-9.7014-9.1894z" color="#000" style="-inkscape-stroke:none;font-feature-settings:normal;font-variant-alternates:normal;font-variant-caps:normal;font-variant-east-asian:normal;font-variant-ligatures:normal;font-variant-numeric:normal;font-variant-position:normal;font-variation-settings:normal;inline-size:0;isolation:auto;mix-blend-mode:normal;shape-margin:0;shape-padding:0;text-decoration-color:#000;text-decoration-line:none;text-decoration-style:solid;text-indent:0;text-orientation:mixed;text-transform:none;white-space:normal"/></svg>